# xmcd
#
# Track frame offsets:
#	150
#	27723
#	47091
#	67368
#	87236
#	106935
#	126564
#	147239
#	166354
#	187041
#	208268
#	229464
#	253750
#	271314
#	291464
#	312670
#	334391
#
# Disc length: 4751 seconds
#
# Revision: 0
# Processed by: cddbd v1.5.2PL0 Copyright (c) Steve Scherf et al.
# Submitted via: EasyCDDAExtractor 11.0.2.1
#
DISCID=26128d11
DTITLE=Various Artist - Gatecrasher - Digital Trance [CD1]
DYEAR=2002
DGENRE=Trance
TTITLE0=Jamnesia - She's My Friend
TTITLE1=Mauro Picotto - Pulsar (2002 Remix)
TTITLE2=Rob Aker - Dad's Home
TTITLE3=Delorix - Nexus (Spectre Remix)
TTITLE4=Solar Factor - No Return
TTITLE5=Mo'Hawk - Atlantic Stress
TTITLE6=John Askew - Vellum
TTITLE7=En Motion - Getting Away With It
TTITLE8=Push - Tranzy State of Mind
TTITLE9=M.O.R.P.H. - Consequence
TTITLE10=The Traveller and In Motion - Believe
TTITLE11=Hemstock and Jennings - Arizona
TTITLE12=Human Evolution - Human Evolution
TTITLE13=Jose Amnesia - The Voyager
TTITLE14=Yves Deruyter - Music Non Stop
TTITLE15=Vision of Yawa - Tibet
TTITLE16=Trance All Stars - Lost In Love
EXTD=
EXTT0=
EXTT1=
EXTT2=
EXTT3=
EXTT4=
EXTT5=
EXTT6=
EXTT7=
EXTT8=
EXTT9=
EXTT10=
EXTT11=
EXTT12=
EXTT13=
EXTT14=
EXTT15=
EXTT16=
PLAYORDER=
